# xmcd CD database file
#
# Track frame offsets:
#	150
#	15937
#	35857
#	51445
#	67237
#	87150
#	102577
#	122316
#	147318
#	166916
#	187116
#	206926
#	227508
#	245827
#	269690
#	289736
#
# Disc length: 4132 seconds
#
# Revision: 0
# Processed by: cddbd v1.5.1PL0 Copyright (c) Steve Scherf et al.
# Submitted via: CDex 1.51
#
DISCID=f8102210
DTITLE=BoA - VALENTI
DYEAR=2003
DGENRE=JPop
TTITLE0=DOUBLE
TTITLE1=Midnight Parade
TTITLE2=Milky Way -君の歌-
TTITLE3=DOUBLE (instrumental)
TTITLE4=Midnight Parade (instrumental)
TTITLE5=Milky Way -君の歌- (instrumental)
TTITLE6=VALENTI
TTITLE7=JEWEL SONG
TTITLE8=B.I.O
TTITLE9=世界の片隅で
TTITLE10=奇蹟
TTITLE11=WINDING ROAAD featuring DABO
TTITLE12=Searching for truth
TTITLE13=Moon and Sunrise
TTITLE14=Discovery
TTITLE15=flower
EXTD=YEAR: 2003
EXTT0=
EXTT1=
EXTT2=
EXTT3=
EXTT4=
EXTT5=
EXTT6=
EXTT7=
EXTT8=
EXTT9=
EXTT10=
EXTT11=
EXTT12=
EXTT13=
EXTT14=
EXTT15=
PLAYORDER=
